<svg id="Capa_1" data-name="Capa 1" xmlns="http://www.w3.org/2000/svg" viewBox="0 0 500 178"><defs><style>.cls-1{fill:#fff;}.cls-2{fill:#efc90a;}</style></defs><title>Sin título-2</title><path class="cls-1" d="M301.24,131.26l-1.61,1.24a8.83,8.83,0,0,0-3.21-2.64,9.37,9.37,0,0,0-4.11-.89,9.17,9.17,0,0,0-4.54,1.17,8.39,8.39,0,0,0-3.23,3.16,8.69,8.69,0,0,0-1.15,4.46A8.36,8.36,0,0,0,286,144a8.89,8.89,0,0,0,6.47,2.51,9.1,9.1,0,0,0,7.2-3.37l1.61,1.23a10.27,10.27,0,0,1-3.82,3,12,12,0,0,1-5.11,1.06,10.64,10.64,0,0,1-8.47-3.57,10.78,10.78,0,0,1-2.61-7.29,10.13,10.13,0,0,1,3.16-7.56,10.84,10.84,0,0,1,7.89-3.07,11.69,11.69,0,0,1,5.18,1.13A10.08,10.08,0,0,1,301.24,131.26Z"/><path class="cls-1" d="M304.29,132.79h2V135a6.9,6.9,0,0,1,1.88-1.95,3.68,3.68,0,0,1,2-.65,3.5,3.5,0,0,1,1.73.52l-1,1.64a2.62,2.62,0,0,0-1-.27,2.83,2.83,0,0,0-1.87.8,5,5,0,0,0-1.38,2.49,23.86,23.86,0,0,0-.36,5.23v5.12h-2Z"/><path class="cls-1" d="M326.34,142.91l1.64.86a9.05,9.05,0,0,1-1.86,2.56,7.42,7.42,0,0,1-2.39,1.48,8.26,8.26,0,0,1-3,.51,7.22,7.22,0,0,1-5.79-2.43,8.16,8.16,0,0,1-2.09-5.49,8.07,8.07,0,0,1,1.77-5.13,7.22,7.22,0,0,1,6-2.87,7.46,7.46,0,0,1,6.18,2.94,8.15,8.15,0,0,1,1.67,5.17H314.86a6.19,6.19,0,0,0,1.69,4.33,5.37,5.37,0,0,0,4,1.68,6.43,6.43,0,0,0,2.25-.4,5.82,5.82,0,0,0,1.86-1.07A9.29,9.29,0,0,0,326.34,142.91Zm0-4.08a6.4,6.4,0,0,0-1.14-2.49,5.3,5.3,0,0,0-2-1.5,6,6,0,0,0-2.57-.57,5.55,5.55,0,0,0-3.84,1.43,6.45,6.45,0,0,0-1.76,3.13Z"/><path class="cls-1" d="M347.19,132.79v15.14h-1.92v-2.6a8.34,8.34,0,0,1-2.74,2.24,7.47,7.47,0,0,1-3.34.75,7.38,7.38,0,0,1-5.48-2.33,7.83,7.83,0,0,1-2.28-5.67,7.69,7.69,0,0,1,2.3-5.6,7.51,7.51,0,0,1,5.52-2.32,7.22,7.22,0,0,1,3.37.79,7.73,7.73,0,0,1,2.65,2.38v-2.78Zm-7.78,1.49a5.88,5.88,0,0,0-3,.8,5.82,5.82,0,0,0-2.19,2.24,6.2,6.2,0,0,0-.81,3.06,6.11,6.11,0,0,0,.82,3.06,5.93,5.93,0,0,0,2.2,2.27,5.77,5.77,0,0,0,3,.81,6.12,6.12,0,0,0,3-.8,5.72,5.72,0,0,0,2.21-2.18,6.31,6.31,0,0,0,.77-3.1,6.06,6.06,0,0,0-1.73-4.4A5.76,5.76,0,0,0,339.41,134.28Z"/><path class="cls-1" d="M351.56,132.79h1.95v2.62a7.53,7.53,0,0,1,2.09-2.12,6,6,0,0,1,3.11-.89,5.23,5.23,0,0,1,2.08.43,4.53,4.53,0,0,1,1.62,1.15A6.2,6.2,0,0,1,363.5,136a7,7,0,0,1,2.43-2.7,5.7,5.7,0,0,1,3.13-.93,5,5,0,0,1,2.77.79,4.68,4.68,0,0,1,1.78,2.22,11.69,11.69,0,0,1,.59,4.25v8.27h-2v-8.27a10.78,10.78,0,0,0-.35-3.34,3,3,0,0,0-1.18-1.47,3.57,3.57,0,0,0-2-.56,4.33,4.33,0,0,0-2.58.84,4.8,4.8,0,0,0-1.72,2.22,14.16,14.16,0,0,0-.54,4.65v5.93h-1.95v-7.75a13.15,13.15,0,0,0-.34-3.72,3,3,0,0,0-1.19-1.57,3.37,3.37,0,0,0-2-.6,4.41,4.41,0,0,0-2.53.82,4.85,4.85,0,0,0-1.74,2.19,11.94,11.94,0,0,0-.56,4.21v6.42h-1.95Z"/><path class="cls-1" d="M385.47,132.4a7.5,7.5,0,0,1,5.79,2.53,8.12,8.12,0,0,1-.11,11,8,8,0,0,1-11.38,0,8.11,8.11,0,0,1-.12-11A7.52,7.52,0,0,1,385.47,132.4Zm0,1.91a5.66,5.66,0,0,0-4.18,1.79,6,6,0,0,0-1.74,4.34,6.13,6.13,0,0,0,.8,3.06,5.62,5.62,0,0,0,2.15,2.2,6.11,6.11,0,0,0,5.94,0,5.62,5.62,0,0,0,2.15-2.2,6.13,6.13,0,0,0,.8-3.06,6,6,0,0,0-1.75-4.34A5.65,5.65,0,0,0,385.46,134.31Z"/><path class="cls-1" d="M404.57,134.45l-1.25,1.29a4.53,4.53,0,0,0-3.06-1.52,2.29,2.29,0,0,0-1.62.63,1.9,1.9,0,0,0-.68,1.46,2.15,2.15,0,0,0,.56,1.41,8,8,0,0,0,2.34,1.6,8.63,8.63,0,0,1,2.95,2.17,3.87,3.87,0,0,1,.77,2.38,4.23,4.23,0,0,1-1.31,3.15,4.43,4.43,0,0,1-3.27,1.3,5.69,5.69,0,0,1-2.5-.57,5.48,5.48,0,0,1-2-1.57l1.23-1.4a4.23,4.23,0,0,0,3.16,1.69,2.87,2.87,0,0,0,2-.75,2.33,2.33,0,0,0,.82-1.77,2.28,2.28,0,0,0-.54-1.49,8.77,8.77,0,0,0-2.46-1.61,7.87,7.87,0,0,1-2.78-2.09,3.89,3.89,0,0,1-.74-2.35,3.84,3.84,0,0,1,1.17-2.87,4.12,4.12,0,0,1,3-1.14A6.15,6.15,0,0,1,404.57,134.45Z"/><path class="cls-1" d="M416.58,126.56a1.6,1.6,0,0,1,1.61,1.61,1.56,1.56,0,0,1-.47,1.13,1.59,1.59,0,0,1-1.14.47,1.54,1.54,0,0,1-1.12-.47,1.53,1.53,0,0,1-.47-1.13,1.6,1.6,0,0,1,1.59-1.61Zm-1,6.23h1.95v15.14h-1.95Z"/><path class="cls-1" d="M436.72,127v21H434.8v-2.6a8.37,8.37,0,0,1-2.75,2.24,7.68,7.68,0,0,1-8.82-1.58,7.82,7.82,0,0,1-2.27-5.67,7.68,7.68,0,0,1,2.29-5.6,7.52,7.52,0,0,1,5.53-2.32,7.25,7.25,0,0,1,3.37.79,7.73,7.73,0,0,1,2.65,2.38V127Zm-7.78,7.33a5.89,5.89,0,0,0-5.2,3,6.15,6.15,0,0,0,0,6.12,6,6,0,0,0,2.2,2.27,5.79,5.79,0,0,0,3,.81,6.13,6.13,0,0,0,3-.8,5.69,5.69,0,0,0,2.2-2.18,6.2,6.2,0,0,0,.77-3.1,6,6,0,0,0-1.73-4.4A5.73,5.73,0,0,0,428.94,134.28Z"/><path class="cls-1" d="M453.87,142.91l1.64.86a8.68,8.68,0,0,1-1.86,2.56,7.48,7.48,0,0,1-2.38,1.48,8.28,8.28,0,0,1-3,.51,7.22,7.22,0,0,1-5.79-2.43,8.21,8.21,0,0,1-2.09-5.49,8.07,8.07,0,0,1,1.77-5.13,7.25,7.25,0,0,1,6-2.87,7.46,7.46,0,0,1,6.18,2.94,8.16,8.16,0,0,1,1.68,5.17H442.4a6.18,6.18,0,0,0,1.68,4.33,5.4,5.4,0,0,0,4,1.68,6.43,6.43,0,0,0,2.25-.4,5.93,5.93,0,0,0,1.86-1.07A9,9,0,0,0,453.87,142.91Zm0-4.08a6.39,6.39,0,0,0-1.13-2.49,5.46,5.46,0,0,0-2-1.5,6.07,6.07,0,0,0-2.58-.57,5.52,5.52,0,0,0-3.83,1.43,6.46,6.46,0,0,0-1.77,3.13Z"/><path class="cls-1" d="M474.73,132.79v15.14h-1.92v-2.6a8.37,8.37,0,0,1-2.75,2.24,7.68,7.68,0,0,1-8.82-1.58,7.82,7.82,0,0,1-2.27-5.67,7.68,7.68,0,0,1,2.29-5.6,7.51,7.51,0,0,1,5.52-2.32,7.26,7.26,0,0,1,3.38.79,7.82,7.82,0,0,1,2.65,2.38v-2.78Zm-7.79,1.49a5.89,5.89,0,0,0-5.19,3,6.2,6.2,0,0,0-.81,3.06,6.11,6.11,0,0,0,.82,3.06,6,6,0,0,0,2.2,2.27,5.77,5.77,0,0,0,3,.81,6.16,6.16,0,0,0,3-.8,5.69,5.69,0,0,0,2.2-2.18,6.2,6.2,0,0,0,.77-3.1,6,6,0,0,0-1.73-4.4A5.74,5.74,0,0,0,466.94,134.28Z"/><path class="cls-1" d="M486.72,134.45l-1.25,1.29a4.51,4.51,0,0,0-3.06-1.52,2.29,2.29,0,0,0-1.62.63,1.94,1.94,0,0,0-.68,1.46,2.2,2.2,0,0,0,.56,1.41,8,8,0,0,0,2.34,1.6,8.69,8.69,0,0,1,3,2.17,3.93,3.93,0,0,1,.76,2.38,4.23,4.23,0,0,1-1.31,3.15,4.43,4.43,0,0,1-3.27,1.3,5.72,5.72,0,0,1-2.5-.57,5.53,5.53,0,0,1-2-1.57l1.22-1.4a4.25,4.25,0,0,0,3.17,1.69,2.85,2.85,0,0,0,2-.75,2.33,2.33,0,0,0,.82-1.77,2.28,2.28,0,0,0-.54-1.49,8.67,8.67,0,0,0-2.45-1.61,7.83,7.83,0,0,1-2.79-2.09,4,4,0,0,1-.74-2.35,3.82,3.82,0,0,1,1.18-2.87,4.08,4.08,0,0,1,3-1.14A6.13,6.13,0,0,1,486.72,134.45Z"/><path class="cls-2" d="M90,54.08l11.84-6A38.31,38.31,0,0,0,84.75,30.94L78.88,42.85A25,25,0,0,1,90,54.08Z"/><path class="cls-1" d="M82.18,114H95.45V75.29h-.14a37.92,37.92,0,0,0-4-16.71l-11.84,6A24.92,24.92,0,1,1,68.37,53.36h0l5.87-11.91a38,38,0,0,0-17.08-4h0A38.15,38.15,0,0,0,19,75.56h0a38.15,38.15,0,0,0,38.16,38.16h0a38,38,0,0,0,25-9.36Z"/><path class="cls-1" d="M309,42.6l0,0c-.53-.29-1.06-.56-1.59-.82l-.07,0c-.52-.25-1-.49-1.58-.72l-.13-.06c-.51-.21-1-.42-1.54-.61l-.2-.08c-.5-.19-1-.35-1.51-.52l-.28-.09-1.48-.43-.35-.09c-.46-.12-.94-.23-1.41-.33l-.45-.11c-.45-.09-.91-.17-1.37-.24l-.52-.1-1.33-.17-.59-.07c-.46-.05-.93-.08-1.4-.11l-.55,0c-.65,0-1.31-.05-2-.05h0A38.13,38.13,0,0,0,252.48,76h0a38.13,38.13,0,0,0,38.13,38.14h0c.62,0,1.23,0,1.85,0l.59,0q.61,0,1.23-.09l.69-.08c.37,0,.74-.08,1.11-.14l.72-.11,1.06-.19.71-.14,1.07-.24.67-.17,1.14-.32.56-.16c.54-.17,1.07-.35,1.6-.55l.07,0c.55-.2,1.08-.41,1.61-.63l.53-.23,1.06-.48.61-.3.95-.48.62-.34.91-.52.59-.36.91-.58c.18-.12.37-.23.55-.36l1-.68.44-.32c.46-.34.92-.69,1.36-1.06h0c.94-.77,1.84-1.58,2.7-2.44l-9.39-9.38a24.74,24.74,0,0,1-21.16,6.92l-.79-.13-.38-.07-.71-.16-.43-.1-.69-.18-.44-.13c-.22-.06-.44-.14-.66-.21l-.44-.15-.64-.23-.44-.18-.63-.26-.42-.19-.62-.29-.41-.21-.6-.32-.38-.22-.61-.35-.25-.17c-.45-.28-.89-.58-1.33-.89l-.25-.18-.52-.4-.38-.31c-.16-.13-.32-.26-.47-.4l-.4-.34-.44-.41-.39-.37-.42-.42-.38-.4-.39-.43c-.13-.14-.25-.29-.37-.43s-.25-.29-.37-.44l-.36-.46-.33-.44-.36-.49-.3-.44-.35-.55-.27-.42c-.15-.25-.3-.51-.44-.77s-.14-.24-.2-.36l-.45-.87-.18-.4-.3-.65-.18-.45-.25-.63-.17-.48-.21-.63-.15-.49-.06-.19H314.5l0,.1h13.62a37.61,37.61,0,0,0,.66-7h0A38.12,38.12,0,0,0,309,42.6Zm-18.35,8.56c.43,0,.86,0,1.29,0l.35,0,.92.07.37.05.89.12c.12,0,.23,0,.35.06l.88.16.31.07.91.21.25.07.94.28.2.06,1,.34.15.06c.34.12.67.26,1,.4l.11,0c.34.14.67.3,1,.46l.07,0c.35.17.69.35,1,.53l0,0c.34.19.68.38,1,.59h0a24.9,24.9,0,0,1,4.72,3.77h0a24.86,24.86,0,0,1,6.29,11H266.57A24.91,24.91,0,0,1,290.61,51.16Z"/><path class="cls-1" d="M376.66,37.9h0a38,38,0,0,0-25.17,9.5V38.17H338.23v76.27h13.26V76.1h.3V76a24.88,24.88,0,0,1,49.75,0s0,0,0,.07h.25v38.34h13.27V75.76h-.26A38.13,38.13,0,0,0,376.66,37.9Z"/><path class="cls-1" d="M488,50.89V37.62H424.44V76.31h.14a38.14,38.14,0,0,0,38.13,37.86h0V100.91h0A24.9,24.9,0,0,1,437.84,76c0-.18,0-.37,0-.55h-.15V50.89Z"/><path class="cls-1" d="M147.71,51.16a24.8,24.8,0,0,1,17.59,7.31l9.39-9.39a38,38,0,0,0-27-11.18h0A38.14,38.14,0,0,0,109.57,76h0a38.14,38.14,0,0,0,38.14,38.14h0a38,38,0,0,0,26.7-10.91L165,93.87a24.86,24.86,0,1,1-17.31-42.71Z"/><path class="cls-1" d="M217.87,51.16a24.78,24.78,0,0,1,17.94,7.68l9.39-9.39A38,38,0,0,0,217.87,37.9h0A38.14,38.14,0,0,0,179.73,76h0a38.14,38.14,0,0,0,38.14,38.14h0a38,38,0,0,0,27.06-11.27l-9.39-9.39a24.86,24.86,0,1,1-17.67-42.35Z"/></svg>